<!DOCTYPE svg PUBLIC "-//W3C//DTD SVG 1.1//EN" "http://www.w3.org/Graphics/SVG/1.1/DTD/svg11.dtd">
<!-- Uploaded to: SVG Repo, www.svgrepo.com, Transformed by: SVG Repo Mixer Tools -->
<svg height="800px" width="800px" version="1.1" id="_x32_" xmlns="http://www.w3.org/2000/svg" xmlns:xlink="http://www.w3.org/1999/xlink" viewBox="0 0 512 512" xml:space="preserve" fill="#fce94f">
<g id="SVGRepo_bgCarrier" stroke-width="0"/>
<g id="SVGRepo_tracerCarrier" stroke-linecap="round" stroke-linejoin="round"/>
<g id="SVGRepo_iconCarrier"> <style type="text/css"> .st0{fill:#fce94f;} </style> <g> <path class="st0" d="M473.116,137.853c-19.567-20.047-45.464-33.981-74.325-39.016c-8.798-23.678-23.663-44.369-42.811-60.033 c-24.143-19.76-55.239-31.685-88.863-31.67c-33.966-0.015-65.371,12.142-89.624,32.274c-18.216,15.09-32.57,34.703-41.336,57.156 c-37.442,0.171-71.562,15.469-96.094,40.032C15.361,161.267-0.016,195.645,0,233.334c-0.016,37.682,15.361,72.059,40.063,96.731 c24.672,24.71,59.041,40.087,96.731,40.071c11.832,0,28.046,0,46.596,0v-53.935c-18.55,0-34.764,0-46.596,0 c-22.964-0.016-43.509-9.232-58.591-24.276c-15.036-15.082-24.252-35.618-24.268-58.591c0.016-22.972,9.232-43.516,24.268-58.598 c15.082-15.028,35.626-24.244,58.591-24.26c4.624,0,9.356,0.481,14.306,1.334l25.913,4.531l5.167-25.788 c3.956-19.776,14.694-37.155,29.714-49.606c15.052-12.444,34.137-19.861,55.224-19.877c20.87,0.016,39.753,7.277,54.727,19.496 c14.958,12.227,25.726,29.318,29.931,48.777l4.469,20.706l21.181,0.566c22.421,0.598,42.453,9.985,57.101,24.928 c14.601,15.005,23.523,35.207,23.539,57.791c-0.016,22.972-9.233,43.509-24.268,58.591c-15.082,15.044-35.626,24.26-58.59,24.276 c-11.731,0-27.962,0-46.581,0v53.935c18.62,0,34.85,0,46.581,0c37.689,0.016,72.059-15.362,96.73-40.071 c24.702-24.672,40.08-59.033,40.064-96.731C512.016,196.257,497.135,162.393,473.116,137.853z"/> <path class="st0" d="M280.128,289.388c14.088-8.76,23.5-24.338,23.5-42.151c0-27.418-22.228-49.653-49.653-49.653 c-27.426,0-49.653,22.235-49.653,49.653c0,19.474,11.242,36.286,27.565,44.424v132h-46.891l71.012,81.206l71.011-81.206h-46.89 V289.388z"/> </g> </g>
</svg>